<?xml version="1.0" standalone="no"?><!DOCTYPE svg PUBLIC "-//W3C//DTD SVG 1.1//EN" "http://www.w3.org/Graphics/SVG/1.1/DTD/svg11.dtd"><svg t="1730361279167" class="icon" viewBox="0 0 1024 1024" version="1.1" xmlns="http://www.w3.org/2000/svg" p-id="36040" width="1000" height="1000" xmlns:xlink="http://www.w3.org/1999/xlink"><path d="M946.037818 831.824073h45.634319v45.634319h-45.634319zM946.037818 786.104456h45.634319v45.719617h-45.634319z" fill="#340B1D" p-id="36041"></path><path d="M946.037818 603.311287h45.634319v45.719617h-45.634319zM946.037818 557.676968h45.634319v45.634319h-45.634319z" fill="#360C18" p-id="36042"></path><path d="M946.037818 511.957351h45.634319v45.719617h-45.634319zM946.037818 466.323032h45.634319v45.634319h-45.634319z" fill="#360C18" p-id="36043"></path><path d="M900.318201 877.458392h45.719617v45.719617h-45.719617z" fill="#571F32" p-id="36044"></path><path d="M900.318201 831.824073h45.719617v45.634319h-45.719617zM900.318201 786.104456h45.719617v45.719617h-45.719617z" fill="#EA4A6E" p-id="36045"></path><path d="M900.318201 740.38484h45.719617v45.719616h-45.719617zM900.318201 649.030904h45.719617v45.719617h-45.719617z" fill="#360C18" p-id="36046"></path><path d="M900.318201 603.311287h45.719617v45.719617h-45.719617z" fill="#ED799C" p-id="36047"></path><path d="M900.318201 557.676968h45.719617v45.634319h-45.719617z" fill="#FA9BB7" p-id="36048"></path><path d="M900.318201 511.957351h45.719617v45.719617h-45.719617z" fill="#FDA8C7" p-id="36049"></path><path d="M900.318201 466.323032h45.719617v45.634319h-45.719617z" fill="#EA7D9A" p-id="36050"></path><path d="M900.318201 420.603415h45.719617v45.719617h-45.719617z" fill="#360C18" p-id="36051"></path><path d="M854.598584 877.458392h45.719617v45.719617h-45.719617z" fill="#571F32" p-id="36052"></path><path d="M854.598584 831.824073h45.719617v45.634319h-45.719617z" fill="#EA4A6E" p-id="36053"></path><path d="M854.598584 786.104456h45.719617v45.719617h-45.719617z" fill="#FFDBE7" p-id="36054"></path><path d="M854.598584 740.38484h45.719617v45.719616h-45.719617z" fill="#FF7799" p-id="36055"></path><path d="M854.598584 694.750521h45.719617v45.634319h-45.719617zM854.598584 649.030904h45.719617v45.719617h-45.719617z" fill="#360C18" p-id="36056"></path><path d="M854.598584 603.311287h45.719617v45.719617h-45.719617z" fill="#ED799C" p-id="36057"></path><path d="M854.598584 557.676968h45.719617v45.634319h-45.719617z" fill="#FDA8C7" p-id="36058"></path><path d="M854.598584 511.957351h45.719617v45.719617h-45.719617zM854.598584 466.323032h45.719617v45.634319h-45.719617z" fill="#FDA8C7" p-id="36059"></path><path d="M854.598584 420.603415h45.719617v45.719617h-45.719617zM854.598584 374.883798h45.719617v45.719617h-45.719617zM854.598584 329.249479h45.719617v45.634319h-45.719617z" fill="#360C18" p-id="36060"></path><path d="M808.964265 877.458392h45.634319v45.719617h-45.634319z" fill="#571F32" p-id="36061"></path><path d="M808.964265 831.824073h45.634319v45.634319h-45.634319z" fill="#EA4A6E" p-id="36062"></path><path d="M808.964265 786.104456h45.634319v45.719617h-45.634319z" fill="#FF6084" p-id="36063"></path><path d="M808.964265 740.38484h45.634319v45.719616h-45.634319z" fill="#FF7799" p-id="36064"></path><path d="M808.964265 694.750521h45.634319v45.634319h-45.634319z" fill="#EA4A6E" p-id="36065"></path><path d="M808.964265 649.030904h45.634319v45.719617h-45.634319z" fill="#ED799C" p-id="36066"></path><path d="M808.964265 603.311287h45.634319v45.719617h-45.634319z" fill="#FA9BB7" p-id="36067"></path><path d="M808.964265 557.676968h45.634319v45.634319h-45.634319z" fill="#FDA8C7" p-id="36068"></path><path d="M808.964265 511.957351h45.634319v45.719617h-45.634319zM808.964265 466.323032h45.634319v45.634319h-45.634319zM808.964265 420.603415h45.634319v45.719617h-45.634319zM808.964265 374.883798h45.634319v45.719617h-45.634319z" fill="#FDA8C7" p-id="36069"></path><path d="M808.964265 329.249479h45.634319v45.634319h-45.634319z" fill="#EA7D9A" p-id="36070"></path><path d="M808.964265 283.529863h45.634319v45.719616h-45.634319zM808.964265 237.810246h45.634319v45.719617h-45.634319z" fill="#360C18" p-id="36071"></path><path d="M763.244648 877.458392h45.719617v45.719617h-45.719617z" fill="#571F32" p-id="36072"></path><path d="M763.244648 831.824073h45.719617v45.634319h-45.719617z" fill="#EA4A6E" p-id="36073"></path><path d="M763.244648 786.104456h45.719617v45.719617h-45.719617zM763.244648 740.38484h45.719617v45.719616h-45.719617z" fill="#FF6084" p-id="36074"></path><path d="M763.244648 694.750521h45.719617v45.634319h-45.719617z" fill="#ED799C" p-id="36075"></path><path d="M763.244648 649.030904h45.719617v45.719617h-45.719617zM763.244648 603.311287h45.719617v45.719617h-45.719617z" fill="#FA9BB7" p-id="36076"></path><path d="M763.244648 557.676968h45.719617v45.634319h-45.719617z" fill="#FDA8C7" p-id="36077"></path><path d="M763.244648 511.957351h45.719617v45.719617h-45.719617z" fill="#FDA8C7" p-id="36078"></path><path d="M763.244648 466.323032h45.719617v45.634319h-45.719617z" fill="#FA4F77" p-id="36079"></path><path d="M763.244648 420.603415h45.719617v45.719617h-45.719617zM763.244648 374.883798h45.719617v45.719617h-45.719617zM763.244648 329.249479h45.719617v45.634319h-45.719617zM763.244648 283.529863h45.719617v45.719616h-45.719617zM763.244648 237.810246h45.719617v45.719617h-45.719617z" fill="#FDA8C7" p-id="36080"></path><path d="M763.244648 192.175927h45.719617v45.634319h-45.719617z" fill="#58212F" p-id="36081"></path><path d="M717.525031 877.458392h45.719617v45.719617h-45.719617z" fill="#571F32" p-id="36082"></path><path d="M717.525031 831.824073h45.719617v45.634319h-45.719617zM717.525031 786.104456h45.719617v45.719617h-45.719617zM717.525031 740.38484h45.719617v45.719616h-45.719617z" fill="#EA4A6E" p-id="36083"></path><path d="M717.525031 694.750521h45.719617v45.634319h-45.719617zM717.525031 649.030904h45.719617v45.719617h-45.719617z" fill="#FA9BB7" p-id="36084"></path><path d="M717.525031 603.311287h45.719617v45.719617h-45.719617zM717.525031 557.676968h45.719617v45.634319h-45.719617z" fill="#FDA8C7" p-id="36085"></path><path d="M717.525031 511.957351h45.719617v45.719617h-45.719617z" fill="#FDA8C7" p-id="36086"></path><path d="M717.525031 466.323032h45.719617v45.634319h-45.719617z" fill="#FA4F77" p-id="36087"></path><path d="M717.525031 420.603415h45.719617v45.719617h-45.719617zM717.525031 374.883798h45.719617v45.719617h-45.719617zM717.525031 329.249479h45.719617v45.634319h-45.719617zM717.525031 283.529863h45.719617v45.719616h-45.719617zM717.525031 237.810246h45.719617v45.719617h-45.719617z" fill="#FDA8C7" p-id="36088"></path><path d="M717.525031 192.175927h45.719617v45.634319h-45.719617zM717.525031 146.45631h45.719617v45.719617h-45.719617z" fill="#58212F" p-id="36089"></path><path d="M671.890712 877.458392h45.634319v45.719617h-45.634319z" fill="#571F32" p-id="36090"></path><path d="M671.890712 831.824073h45.634319v45.634319h-45.634319zM671.890712 786.104456h45.634319v45.719617h-45.634319z" fill="#EA4A6E" p-id="36091"></path><path d="M671.890712 740.38484h45.634319v45.719616h-45.634319zM671.890712 694.750521h45.634319v45.634319h-45.634319z" fill="#FA9BB7" p-id="36092"></path><path d="M671.890712 649.030904h45.634319v45.719617h-45.634319zM671.890712 603.311287h45.634319v45.719617h-45.634319zM671.890712 557.676968h45.634319v45.634319h-45.634319z" fill="#FDA8C7" p-id="36093"></path><path d="M671.890712 511.957351h45.634319v45.719617h-45.634319z" fill="#FDA8C7" p-id="36094"></path><path d="M671.890712 466.323032h45.634319v45.634319h-45.634319zM671.890712 420.603415h45.634319v45.719617h-45.634319zM671.890712 374.883798h45.634319v45.719617h-45.634319z" fill="#360C18" p-id="36095"></path><path d="M671.890712 329.249479h45.634319v45.634319h-45.634319z" fill="#863C53" p-id="36096"></path><path d="M671.890712 283.529863h45.634319v45.719616h-45.634319z" fill="#EA7D9A" p-id="36097"></path><path d="M671.890712 237.810246h45.634319v45.719617h-45.634319z" fill="#FDA8C7" p-id="36098"></path><path d="M671.890712 192.175927h45.634319v45.634319h-45.634319z" fill="#FDA8C7" p-id="36099"></path><path d="M671.890712 146.45631h45.634319v45.719617h-45.634319z" fill="#58212F" p-id="36100"></path><path d="M626.171095 877.458392h45.719617v45.719617h-45.719617z" fill="#360C18" p-id="36101"></path><path d="M626.171095 831.824073h45.719617v45.634319h-45.719617z" fill="#EA4A6E" p-id="36102"></path><path d="M626.171095 786.104456h45.719617v45.719617h-45.719617z" fill="#ED799C" p-id="36103"></path><path d="M626.171095 740.38484h45.719617v45.719616h-45.719617z" fill="#FA9BB7" p-id="36104"></path><path d="M626.171095 694.750521h45.719617v45.634319h-45.719617zM626.171095 649.030904h45.719617v45.719617h-45.719617zM626.171095 603.311287h45.719617v45.719617h-45.719617z" fill="#FDA8C7" p-id="36105"></path><path d="M626.171095 557.676968h45.719617v45.634319h-45.719617z" fill="#EA7D9A" p-id="36106"></path><path d="M626.171095 511.957351h45.719617v45.719617h-45.719617z" fill="#FDA8C7" p-id="36107"></path><path d="M626.171095 466.323032h45.719617v45.634319h-45.719617z" fill="#B26483" p-id="36108"></path><path d="M626.171095 420.603415h45.719617v45.719617h-45.719617z" fill="#833D55" p-id="36109"></path><path d="M626.171095 374.883798h45.719617v45.719617h-45.719617z" fill="#360C18" p-id="36110"></path><path d="M626.171095 329.249479h45.719617v45.634319h-45.719617z" fill="#FEFFFD" p-id="36111"></path><path d="M626.171095 283.529863h45.719617v45.719616h-45.719617z" fill="#EA7D9A" p-id="36112"></path><path d="M626.171095 237.810246h45.719617v45.719617h-45.719617z" fill="#FDA8C7" p-id="36113"></path><path d="M626.171095 192.175927h45.719617v45.634319h-45.719617z" fill="#FDA8C7" p-id="36114"></path><path d="M626.171095 146.45631h45.719617v45.719617h-45.719617zM626.171095 100.736693h45.719617v45.719617h-45.719617z" fill="#58212F" p-id="36115"></path><path d="M580.536776 877.458392h45.634319v45.719617h-45.634319z" fill="#360C18" p-id="36116"></path><path d="M580.536776 831.824073h45.634319v45.634319h-45.634319z" fill="#EA4A6E" p-id="36117"></path><path d="M580.536776 786.104456h45.634319v45.719617h-45.634319z" fill="#ED799C" p-id="36118"></path><path d="M580.536776 740.38484h45.634319v45.719616h-45.634319z" fill="#FA9BB7" p-id="36119"></path><path d="M580.536776 694.750521h45.634319v45.634319h-45.634319zM580.536776 649.030904h45.634319v45.719617h-45.634319zM580.536776 603.311287h45.634319v45.719617h-45.634319zM580.536776 557.676968h45.634319v45.634319h-45.634319z" fill="#FDA8C7" p-id="36120"></path><path d="M580.536776 511.957351h45.634319v45.719617h-45.634319zM580.536776 466.323032h45.634319v45.634319h-45.634319zM580.536776 420.603415h45.634319v45.719617h-45.634319zM580.536776 374.883798h45.634319v45.719617h-45.634319zM580.536776 329.249479h45.634319v45.634319h-45.634319zM580.536776 283.529863h45.634319v45.719616h-45.634319zM580.536776 237.810246h45.634319v45.719617h-45.634319z" fill="#FDA8C7" p-id="36121"></path><path d="M580.536776 192.175927h45.634319v45.634319h-45.634319zM580.536776 146.45631h45.634319v45.719617h-45.634319z" fill="#FDA8C7" p-id="36122"></path><path d="M580.536776 100.736693h45.634319v45.719617h-45.634319z" fill="#58212F" p-id="36123"></path><path d="M534.81716 831.824073h45.719616v45.634319H534.81716z" fill="#360C18" p-id="36124"></path><path d="M534.81716 786.104456h45.719616v45.719617H534.81716zM534.81716 740.38484h45.719616v45.719616H534.81716z" fill="#FA9BB7" p-id="36125"></path><path d="M534.81716 694.750521h45.719616v45.634319H534.81716zM534.81716 649.030904h45.719616v45.719617H534.81716zM534.81716 603.311287h45.719616v45.719617H534.81716zM534.81716 557.676968h45.719616v45.634319H534.81716z" fill="#FDA8C7" p-id="36126"></path><path d="M534.81716 511.957351h45.719616v45.719617H534.81716z" fill="#FDA8C7" p-id="36127"></path><path d="M534.81716 466.323032h45.719616v45.634319H534.81716zM534.81716 420.603415h45.719616v45.719617H534.81716zM534.81716 374.883798h45.719616v45.719617H534.81716z" fill="#360C18" p-id="36128"></path><path d="M534.81716 329.249479h45.719616v45.634319H534.81716z" fill="#863C53" p-id="36129"></path><path d="M534.81716 283.529863h45.719616v45.719616H534.81716z" fill="#EA7D9A" p-id="36130"></path><path d="M534.81716 237.810246h45.719616v45.719617H534.81716z" fill="#FDA8C7" p-id="36131"></path><path d="M534.81716 192.175927h45.719616v45.634319H534.81716zM534.81716 146.45631h45.719616v45.719617H534.81716z" fill="#FDA8C7" p-id="36132"></path><path d="M534.81716 100.736693h45.719616v45.719617H534.81716z" fill="#58212F" p-id="36133"></path><path d="M489.097543 831.824073h45.719617v45.634319h-45.719617z" fill="#360C18" p-id="36134"></path><path d="M489.097543 786.104456h45.719617v45.719617h-45.719617zM489.097543 740.38484h45.719617v45.719616h-45.719617z" fill="#FA9BB7" p-id="36135"></path><path d="M489.097543 694.750521h45.719617v45.634319h-45.719617zM489.097543 649.030904h45.719617v45.719617h-45.719617zM489.097543 603.311287h45.719617v45.719617h-45.719617zM489.097543 557.676968h45.719617v45.634319h-45.719617z" fill="#FDA8C7" p-id="36136"></path><path d="M489.097543 511.957351h45.719617v45.719617h-45.719617z" fill="#FDA8C7" p-id="36137"></path><path d="M489.097543 466.323032h45.719617v45.634319h-45.719617z" fill="#B26483" p-id="36138"></path><path d="M489.097543 420.603415h45.719617v45.719617h-45.719617z" fill="#833D55" p-id="36139"></path><path d="M489.097543 374.883798h45.719617v45.719617h-45.719617z" fill="#360C18" p-id="36140"></path><path d="M489.097543 329.249479h45.719617v45.634319h-45.719617z" fill="#FEFFFD" p-id="36141"></path><path d="M489.097543 283.529863h45.719617v45.719616h-45.719617z" fill="#EA7D9A" p-id="36142"></path><path d="M489.097543 237.810246h45.719617v45.719617h-45.719617z" fill="#FDA8C7" p-id="36143"></path><path d="M489.097543 192.175927h45.719617v45.634319h-45.719617zM489.097543 146.45631h45.719617v45.719617h-45.719617z" fill="#FDA8C7" p-id="36144"></path><path d="M489.097543 100.736693h45.719617v45.719617h-45.719617z" fill="#58212F" p-id="36145"></path><path d="M443.463224 877.458392h45.634319v45.719617h-45.634319z" fill="#360C18" p-id="36146"></path><path d="M443.463224 831.824073h45.634319v45.634319h-45.634319z" fill="#EA4A6E" p-id="36147"></path><path d="M443.463224 786.104456h45.634319v45.719617h-45.634319zM443.463224 740.38484h45.634319v45.719616h-45.634319z" fill="#FA9BB7" p-id="36148"></path><path d="M443.463224 694.750521h45.634319v45.634319h-45.634319zM443.463224 649.030904h45.634319v45.719617h-45.634319zM443.463224 603.311287h45.634319v45.719617h-45.634319zM443.463224 557.676968h45.634319v45.634319h-45.634319z" fill="#FDA8C7" p-id="36149"></path><path d="M443.463224 511.957351h45.634319v45.719617h-45.634319zM443.463224 466.323032h45.634319v45.634319h-45.634319zM443.463224 420.603415h45.634319v45.719617h-45.634319zM443.463224 374.883798h45.634319v45.719617h-45.634319z" fill="#FDA8C7" p-id="36150"></path><path d="M443.463224 329.249479h45.634319v45.634319h-45.634319z" fill="#EA7D9C" p-id="36151"></path><path d="M443.463224 283.529863h45.634319v45.719616h-45.634319zM443.463224 237.810246h45.634319v45.719617h-45.634319z" fill="#FDA8C7" p-id="36152"></path><path d="M443.463224 192.175927h45.634319v45.634319h-45.634319zM443.463224 146.45631h45.634319v45.719617h-45.634319z" fill="#FDA8C7" p-id="36153"></path><path d="M443.463224 100.736693h45.634319v45.719617h-45.634319z" fill="#58212F" p-id="36154"></path><path d="M397.743607 877.458392h45.719617v45.719617h-45.719617z" fill="#360C18" p-id="36155"></path><path d="M397.743607 831.824073h45.719617v45.634319h-45.719617zM397.743607 786.104456h45.719617v45.719617h-45.719617z" fill="#EA4A6E" p-id="36156"></path><path d="M397.743607 740.38484h45.719617v45.719616h-45.719617z" fill="#FA9BB7" p-id="36157"></path><path d="M397.743607 694.750521h45.719617v45.634319h-45.719617z" fill="#FA9BB9" p-id="36158"></path><path d="M397.743607 649.030904h45.719617v45.719617h-45.719617zM397.743607 603.311287h45.719617v45.719617h-45.719617zM397.743607 557.676968h45.719617v45.634319h-45.719617z" fill="#FDA8C7" p-id="36159"></path><path d="M397.743607 511.957351h45.719617v45.719617h-45.719617z" fill="#FDA8C7" p-id="36160"></path><path d="M397.743607 466.323032h45.719617v45.634319h-45.719617z" fill="#FD4E77" p-id="36161"></path><path d="M397.743607 420.603415h45.719617v45.719617h-45.719617zM397.743607 374.883798h45.719617v45.719617h-45.719617zM397.743607 329.249479h45.719617v45.634319h-45.719617zM397.743607 283.529863h45.719617v45.719616h-45.719617zM397.743607 237.810246h45.719617v45.719617h-45.719617z" fill="#FDA8C7" p-id="36162"></path><path d="M397.743607 192.175927h45.719617v45.634319h-45.719617z" fill="#FDA8C7" p-id="36163"></path><path d="M397.743607 146.45631h45.719617v45.719617h-45.719617zM397.743607 100.736693h45.719617v45.719617h-45.719617zM352.02399 877.458392h45.719617v45.719617h-45.719617z" fill="#360C18" p-id="36164"></path><path d="M352.02399 831.824073h45.719617v45.634319h-45.719617zM352.02399 786.104456h45.719617v45.719617h-45.719617z" fill="#EA4A6E" p-id="36165"></path><path d="M352.02399 740.38484h45.719617v45.719616h-45.719617z" fill="#EB7B9B" p-id="36166"></path><path d="M352.02399 694.750521h45.719617v45.634319h-45.719617z" fill="#FA9BB9" p-id="36167"></path><path d="M352.02399 649.030904h45.719617v45.719617h-45.719617zM352.02399 603.311287h45.719617v45.719617h-45.719617zM352.02399 557.676968h45.719617v45.634319h-45.719617z" fill="#FDA8C7" p-id="36168"></path><path d="M352.02399 511.957351h45.719617v45.719617h-45.719617z" fill="#FDA8C7" p-id="36169"></path><path d="M352.02399 466.323032h45.719617v45.634319h-45.719617z" fill="#FD4E77" p-id="36170"></path><path d="M352.02399 420.603415h45.719617v45.719617h-45.719617zM352.02399 374.883798h45.719617v45.719617h-45.719617zM352.02399 329.249479h45.719617v45.634319h-45.719617zM352.02399 283.529863h45.719617v45.719616h-45.719617zM352.02399 237.810246h45.719617v45.719617h-45.719617z" fill="#FDA8C7" p-id="36171"></path><path d="M352.02399 192.175927h45.719617v45.634319h-45.719617z" fill="#FDA8C7" p-id="36172"></path><path d="M352.02399 146.45631h45.719617v45.719617h-45.719617zM306.389671 877.458392h45.634319v45.719617h-45.634319z" fill="#360C18" p-id="36173"></path><path d="M306.389671 831.824073h45.634319v45.634319h-45.634319zM306.389671 786.104456h45.634319v45.719617h-45.634319zM306.389671 740.38484h45.634319v45.719616h-45.634319z" fill="#EA4A6E" p-id="36174"></path><path d="M306.389671 694.750521h45.634319v45.634319h-45.634319zM306.389671 649.030904h45.634319v45.719617h-45.634319z" fill="#FA9BB9" p-id="36175"></path><path d="M306.389671 603.311287h45.634319v45.719617h-45.634319zM306.389671 557.676968h45.634319v45.634319h-45.634319z" fill="#FDA8C7" p-id="36176"></path><path d="M306.389671 511.957351h45.634319v45.719617h-45.634319z" fill="#FDA8C7" p-id="36177"></path><path d="M306.389671 466.323032h45.634319v45.634319h-45.634319z" fill="#EB7D9E" p-id="36178"></path><path d="M306.389671 420.603415h45.634319v45.719617h-45.634319zM306.389671 374.883798h45.634319v45.719617h-45.634319zM306.389671 329.249479h45.634319v45.634319h-45.634319zM306.389671 283.529863h45.634319v45.719616h-45.634319zM306.389671 237.810246h45.634319v45.719617h-45.634319z" fill="#FDA8C7" p-id="36179"></path><path d="M306.389671 192.175927h45.634319v45.634319h-45.634319z" fill="#EE7D99" p-id="36180"></path><path d="M306.389671 146.45631h45.634319v45.719617h-45.634319z" fill="#58212F" p-id="36181"></path><path d="M260.670054 877.458392h45.719617v45.719617h-45.719617z" fill="#360C18" p-id="36182"></path><path d="M260.670054 831.824073h45.719617v45.634319h-45.719617z" fill="#EA4A6E" p-id="36183"></path><path d="M260.670054 786.104456h45.719617v45.719617h-45.719617zM260.670054 740.38484h45.719617v45.719616h-45.719617z" fill="#FF6084" p-id="36184"></path><path d="M260.670054 694.750521h45.719617v45.634319h-45.719617z" fill="#EB7B9B" p-id="36185"></path><path d="M260.670054 649.030904h45.719617v45.719617h-45.719617z" fill="#FA9BB9" p-id="36186"></path><path d="M260.670054 603.311287h45.719617v45.719617h-45.719617z" fill="#FDA8C7" p-id="36187"></path><path d="M260.670054 557.676968h45.719617v45.634319h-45.719617z" fill="#FA9BB9" p-id="36188"></path><path d="M260.670054 511.957351h45.719617v45.719617h-45.719617zM260.670054 466.323032h45.719617v45.634319h-45.719617zM260.670054 420.603415h45.719617v45.719617h-45.719617zM260.670054 374.883798h45.719617v45.719617h-45.719617zM260.670054 329.249479h45.719617v45.634319h-45.719617zM260.670054 283.529863h45.719617v45.719616h-45.719617zM260.670054 237.810246h45.719617v45.719617h-45.719617z" fill="#FDA8C7" p-id="36189"></path><path d="M260.670054 192.175927h45.719617v45.634319h-45.719617zM260.670054 146.45631h45.719617v45.719617h-45.719617z" fill="#58212F" p-id="36190"></path><path d="M214.950437 877.458392h45.719617v45.719617H214.950437z" fill="#360C18" p-id="36191"></path><path d="M214.950437 831.824073h45.719617v45.634319H214.950437z" fill="#EA4A6E" p-id="36192"></path><path d="M214.950437 786.104456h45.719617v45.719617H214.950437z" fill="#FF6084" p-id="36193"></path><path d="M214.950437 740.38484h45.719617v45.719616H214.950437z" fill="#EB7B9B" p-id="36194"></path><path d="M214.950437 694.750521h45.719617v45.634319H214.950437z" fill="#EA4A6E" p-id="36195"></path><path d="M214.950437 649.030904h45.719617v45.719617H214.950437zM214.950437 603.311287h45.719617v45.719617H214.950437z" fill="#FA9BB9" p-id="36196"></path><path d="M214.950437 557.676968h45.719617v45.634319H214.950437z" fill="#FDA8C7" p-id="36197"></path><path d="M214.950437 511.957351h45.719617v45.719617H214.950437zM214.950437 466.323032h45.719617v45.634319H214.950437z" fill="#FDA8C7" p-id="36198"></path><path d="M214.950437 420.603415h45.719617v45.719617H214.950437z" fill="#FA9BB9" p-id="36199"></path><path d="M214.950437 374.883798h45.719617v45.719617H214.950437zM214.950437 329.249479h45.719617v45.634319H214.950437zM214.950437 283.529863h45.719617v45.719616H214.950437z" fill="#FDA8C7" p-id="36200"></path><path d="M214.950437 237.810246h45.719617v45.719617H214.950437z" fill="#58212F" p-id="36201"></path><path d="M214.950437 192.175927h45.719617v45.634319H214.950437z" fill="#58212F" p-id="36202"></path><path d="M169.316118 877.458392h45.634319v45.719617h-45.634319z" fill="#360C18" p-id="36203"></path><path d="M169.316118 831.824073h45.634319v45.634319h-45.634319z" fill="#EA4A6E" p-id="36204"></path><path d="M169.316118 786.104456h45.634319v45.719617h-45.634319z" fill="#FF6084" p-id="36205"></path><path d="M169.316118 740.38484h45.634319v45.719616h-45.634319z" fill="#FDFFFE" p-id="36206"></path><path d="M169.316118 694.750521h45.634319v45.634319h-45.634319z" fill="#EA4A6E" p-id="36207"></path><path d="M169.316118 649.030904h45.634319v45.719617h-45.634319z" fill="#EB7B9B" p-id="36208"></path><path d="M169.316118 603.311287h45.634319v45.719617h-45.634319z" fill="#FA9BB9" p-id="36209"></path><path d="M169.316118 557.676968h45.634319v45.634319h-45.634319z" fill="#FDA8C7" p-id="36210"></path><path d="M169.316118 511.957351h45.634319v45.719617h-45.634319zM169.316118 466.323032h45.634319v45.634319h-45.634319zM169.316118 420.603415h45.634319v45.719617h-45.634319z" fill="#FDA8C7" p-id="36211"></path><path d="M169.316118 374.883798h45.634319v45.719617h-45.634319z" fill="#FA9BB9" p-id="36212"></path><path d="M169.316118 329.249479h45.634319v45.634319h-45.634319zM169.316118 283.529863h45.634319v45.719616h-45.634319zM169.316118 237.810246h45.634319v45.719617h-45.634319z" fill="#58212F" p-id="36213"></path><path d="M123.596501 877.458392h45.719617v45.719617h-45.719617z" fill="#360C18" p-id="36214"></path><path d="M123.596501 831.824073h45.719617v45.634319h-45.719617z" fill="#EA4A6E" p-id="36215"></path><path d="M123.596501 786.104456h45.719617v45.719617h-45.719617z" fill="#FF6084" p-id="36216"></path><path d="M123.596501 740.38484h45.719617v45.719616h-45.719617z" fill="#EB7B9B" p-id="36217"></path><path d="M123.596501 694.750521h45.719617v45.634319h-45.719617zM123.596501 649.030904h45.719617v45.719617h-45.719617z" fill="#360C18" p-id="36218"></path><path d="M123.596501 603.311287h45.719617v45.719617h-45.719617z" fill="#EB7B9B" p-id="36219"></path><path d="M123.596501 557.676968h45.719617v45.634319h-45.719617z" fill="#FA9BB9" p-id="36220"></path><path d="M123.596501 511.957351h45.719617v45.719617h-45.719617zM123.596501 466.323032h45.719617v45.634319h-45.719617z" fill="#FDA8C7" p-id="36221"></path><path d="M123.596501 420.603415h45.719617v45.719617h-45.719617z" fill="#FA9BB9" p-id="36222"></path><path d="M123.596501 374.883798h45.719617v45.719617h-45.719617z" fill="#360C18" p-id="36223"></path><path d="M123.596501 329.249479h45.719617v45.634319h-45.719617z" fill="#58212F" p-id="36224"></path><path d="M77.876885 877.458392h45.719616v45.719617H77.876885z" fill="#360C18" p-id="36225"></path><path d="M77.876885 831.824073h45.719616v45.634319H77.876885zM77.876885 786.104456h45.719616v45.719617H77.876885z" fill="#EA4A6E" p-id="36226"></path><path d="M77.876885 740.38484h45.719616v45.719616H77.876885zM77.876885 649.030904h45.719616v45.719617H77.876885z" fill="#360C18" p-id="36227"></path><path d="M77.876885 603.311287h45.719616v45.719617H77.876885z" fill="#EB7B9B" p-id="36228"></path><path d="M77.876885 557.676968h45.719616v45.634319H77.876885z" fill="#FA9BB9" p-id="36229"></path><path d="M77.876885 511.957351h45.719616v45.719617H77.876885z" fill="#FA9BB9" p-id="36230"></path><path d="M77.876885 466.323032h45.719616v45.634319H77.876885z" fill="#FDA8C7" p-id="36231"></path><path d="M77.876885 420.603415h45.719616v45.719617H77.876885zM77.876885 374.883798h45.719616v45.719617H77.876885zM32.242566 831.824073h45.634319v45.634319H32.242566zM32.242566 786.104456h45.634319v45.719617H32.242566zM32.242566 603.311287h45.634319v45.719617H32.242566zM32.242566 557.676968h45.634319v45.634319H32.242566z" fill="#360C18" p-id="36232"></path><path d="M32.242566 511.957351h45.634319v45.719617H32.242566zM32.242566 466.323032h45.634319v45.634319H32.242566z" fill="#360C18" p-id="36233"></path></svg>